<?xml version="1.0" encoding="utf-8"?><svg viewBox="0 0 1632 586" xmlns="http://www.w3.org/2000/svg" xmlns:xlink="http://www.w3.org/1999/xlink"><style>:root>svg{display:none}:root>svg:target{display:block}</style><svg version="1.2" viewBox="0 0 9 13" id="angle_right" xmlns="http://www.w3.org/2000/svg"><path fill-rule="evenodd" d="M7 6.2q0-.3-.2-.5L3.1 1.4c-.3-.3-.7-.3-.9 0-.2.3-.2.7 0 1l3.3 3.8L2.2 10c-.2.3-.2.7 0 1 .2.2.6.2.9 0l3.7-4.3q.2-.2.2-.5zm0 0"/></svg><svg version="1.2" viewBox="0 0 1632 586" id="blog-bj" xmlns="http://www.w3.org/2000/svg"><defs><filter x="-50%" y="-50%" width="200%" height="200%" id="ba"/></defs><path fill-rule="evenodd" d="M1619 547.5c0 13-10.5 23.5-23.5 23.5s-23.5-10.5-23.5-23.5 10.5-23.5 23.5-23.5 23.5 10.5 23.5 23.5zm-4.8 0c0-10.3-8.4-18.7-18.7-18.7-10.3 0-18.7 8.4-18.7 18.7 0 10.3 8.4 18.7 18.7 18.7 10.3 0 18.7-8.4 18.7-18.7zm-13.1 0c0 3.1-2.5 5.6-5.6 5.6-3.1 0-5.6-2.5-5.6-5.6 0-3.1 2.5-5.6 5.6-5.6 3.1 0 5.6 2.5 5.6 5.6z" filter="url(#ba)" fill="#fe3e57"/><path d="M83.4 243.8c-1.2 0-2.2.9-2.2 2.1 0 1.2 1 2.2 2.2 2.2 1.2 0 2.2-1 2.2-2.2 0-1.2-1-2.1-2.2-2.1zm-14.4 0c-1.2 0-2.2.9-2.2 2.1 0 1.2 1 2.2 2.2 2.2 1.2 0 2.2-1 2.2-2.2 0-1.2-1-2.1-2.2-2.1zm0-14.4c-1.2 0-2.2.9-2.2 2.1 0 1.2 1 2.2 2.2 2.2 1.2 0 2.2-1 2.2-2.2 0-1.2-1-2.1-2.2-2.1zm-14.4 0c-1.2 0-2.2.9-2.2 2.1 0 1.2 1 2.2 2.2 2.2 1.2 0 2.1-1 2.1-2.2 0-1.2-.9-2.1-2.1-2.1zM76.2 251c-1.2 0-2.2.9-2.2 2.1 0 1.2 1 2.2 2.2 2.2 1.2 0 2.2-1 2.2-2.2 0-1.2-1-2.1-2.2-2.1zm14.4 0c-1.2 0-2.2.9-2.2 2.1 0 1.2 1 2.2 2.2 2.2 1.2 0 2.2-1 2.2-2.2 0-1.2-1-2.1-2.2-2.1zm-14.4-14.4c-1.2 0-2.2.9-2.2 2.1 0 1.2 1 2.2 2.2 2.2 1.2 0 2.2-1 2.2-2.2 0-1.2-1-2.1-2.2-2.1zm-14.4 0c-1.2 0-2.2.9-2.2 2.1 0 1.2 1 2.2 2.2 2.2 1.2 0 2.1-1 2.1-2.2 0-1.2-.9-2.1-2.1-2.1zm36 35.9c-1.2 0-2.2 1-2.2 2.2 0 1.2 1 2.1 2.2 2.1 1.2 0 2.2-.9 2.2-2.1 0-1.2-1-2.2-2.2-2.2zm-14.4 0c-1.2 0-2.2 1-2.2 2.2 0 1.2 1 2.1 2.2 2.1 1.2 0 2.2-.9 2.2-2.1 0-1.2-1-2.2-2.2-2.2zm-14.4 0c-1.2 0-2.2 1-2.2 2.2 0 1.2 1 2.1 2.2 2.1 1.2 0 2.2-.9 2.2-2.1 0-1.2-1-2.2-2.2-2.2zm28.8-14.4c-1.2 0-2.2 1-2.2 2.2 0 1.2 1 2.2 2.2 2.2 1.2 0 2.2-1 2.2-2.2 0-1.2-1-2.2-2.2-2.2zm-14.4 0c-1.2 0-2.2 1-2.2 2.2 0 1.2 1 2.2 2.2 2.2 1.2 0 2.2-1 2.2-2.2 0-1.2-1-2.2-2.2-2.2zm-14.4 0c-1.2 0-2.2 1-2.2 2.2 0 1.2 1 2.2 2.2 2.2 1.2 0 2.2-1 2.2-2.2 0-1.2-1-2.2-2.2-2.2zm-14.4 0c-1.2 0-2.2 1-2.2 2.2 0 1.2 1 2.2 2.2 2.2 1.2 0 2.1-1 2.1-2.2 0-1.2-.9-2.2-2.1-2.2zm21.6 21.6c-1.2 0-2.2 1-2.2 2.2 0 1.2 1 2.1 2.2 2.1 1.2 0 2.2-.9 2.2-2.1 0-1.2-1-2.2-2.2-2.2zm14.4 0c-1.2 0-2.2 1-2.2 2.2 0 1.2 1 2.1 2.2 2.1 1.2 0 2.2-.9 2.2-2.1 0-1.2-1-2.2-2.2-2.2zm-14.4-14.4c-1.2 0-2.2 1-2.2 2.2 0 1.2 1 2.2 2.2 2.2 1.2 0 2.2-1 2.2-2.2 0-1.2-1-2.2-2.2-2.2zm16.6 2.2c0-1.2-1-2.2-2.2-2.2-1.2 0-2.2 1-2.2 2.2 0 1.2 1 2.2 2.2 2.2 1.2 0 2.2-1 2.2-2.2zm12.2-2.2c-1.2 0-2.2 1-2.2 2.2 0 1.2 1 2.2 2.2 2.2 1.2 0 2.2-1 2.2-2.2 0-1.2-1-2.2-2.2-2.2zm-43.2 0c-1.2 0-2.2 1-2.2 2.2 0 1.2 1 2.2 2.2 2.2 1.2 0 2.1-1 2.1-2.2 0-1.2-.9-2.2-2.1-2.2zm7.2 36c-1.2 0-2.2 1-2.2 2.2 0 1.1 1 2.1 2.2 2.1 1.2 0 2.2-1 2.2-2.1 0-1.2-1-2.2-2.2-2.2zm14.4-14.4c-1.2 0-2.2 1-2.2 2.2 0 1.2 1 2.1 2.2 2.1 1.2 0 2.2-.9 2.2-2.1 0-1.2-1-2.2-2.2-2.2zm-14.4 0c-1.2 0-2.2 1-2.2 2.2 0 1.2 1 2.1 2.2 2.1 1.2 0 2.2-.9 2.2-2.1 0-1.2-1-2.2-2.2-2.2zm-14.4 0c-1.2 0-2.2 1-2.2 2.2 0 1.2 1 2.1 2.2 2.1 1.2 0 2.1-.9 2.1-2.1 0-1.2-.9-2.2-2.1-2.2zm21.6 7.2c-1.2 0-2.2 1-2.2 2.2 0 1.2 1 2.1 2.2 2.1 1.2 0 2.2-.9 2.2-2.1 0-1.2-1-2.2-2.2-2.2zm-14.4 0c-1.2 0-2.2 1-2.2 2.2 0 1.2 1 2.1 2.2 2.1 1.2 0 2.1-.9 2.1-2.1 0-1.2-.9-2.2-2.1-2.2zm-7.2 21.6c-1.2 0-2.2 1-2.2 2.1 0 1.2 1 2.2 2.2 2.2 1.2 0 2.1-1 2.1-2.2 0-1.1-.9-2.1-2.1-2.1zm0-96.4c1.2 0 2.1-1 2.1-2.1 0-1.2-.9-2.2-2.1-2.2-1.2 0-2.2 1-2.2 2.2 0 1.1 1 2.1 2.2 2.1zm-7.2 2.9c-1.2 0-2.2 1-2.2 2.1 0 1.2 1 2.2 2.2 2.2 1.2 0 2.1-1 2.1-2.2 0-1.1-.9-2.1-2.1-2.1zm14.4 4.3c1.2 0 2.1-1 2.1-2.2 0-1.1-.9-2.1-2.1-2.1-1.2 0-2.2 1-2.2 2.1 0 1.2 1 2.2 2.2 2.2zm-7.2 21.6c1.2 0 2.1-1 2.1-2.2 0-1.2-.9-2.1-2.1-2.1-1.2 0-2.2.9-2.2 2.1 0 1.2 1 2.2 2.2 2.2zm-7.2 2.9c-1.2 0-2.2.9-2.2 2.1 0 1.2 1 2.2 2.2 2.2 1.2 0 2.1-1 2.1-2.2 0-1.2-.9-2.1-2.1-2.1zm14.4 4.3c1.2 0 2.1-1 2.1-2.2 0-1.2-.9-2.1-2.1-2.1-1.2 0-2.2.9-2.2 2.1 0 1.2 1 2.2 2.2 2.2zm-14.4-18.7c-1.2 0-2.2.9-2.2 2.1 0 1.2 1 2.2 2.2 2.2 1.2 0 2.1-1 2.1-2.2 0-1.2-.9-2.1-2.1-2.1zm-13.6.1q-.4-.1-.8-.1c-.9 0-1.7.5-2 1.3q-.2.4-.2.8 0 .5.2.9c.3.7 1.1 1.3 2 1.3q.4 0 .8-.2c.8-.3 1.3-1.1 1.3-2 0-.9-.5-1.6-1.3-2zm20.8 40.1c1.2 0 2.1-.9 2.1-2.1 0-1.2-.9-2.2-2.1-2.2-1.2 0-2.2 1-2.2 2.2 0 1.2 1 2.1 2.2 2.1zm-7.2 2.9c-1.2 0-2.2 1-2.2 2.2 0 1.2 1 2.1 2.2 2.1 1.2 0 2.1-.9 2.1-2.1 0-1.2-.9-2.2-2.1-2.2zm14.4 4.3c1.2 0 2.1-.9 2.1-2.1 0-1.2-.9-2.2-2.1-2.2-1.2 0-2.2 1-2.2 2.2 0 1.2 1 2.1 2.2 2.1zm-14.4-18.7c-1.2 0-2.2 1-2.2 2.2 0 1.2 1 2.2 2.2 2.2 1.2 0 2.1-1 2.1-2.2 0-1.2-.9-2.2-2.1-2.2zm-13.6.2q-.4-.2-.8-.2c-.9 0-1.7.6-2 1.4q-.2.3-.2.8 0 .4.2.8c.3.8 1.1 1.4 2 1.4q.4 0 .8-.2c.8-.3 1.3-1.1 1.3-2 0-.9-.5-1.7-1.3-2zm20.8 40.1c1.2 0 2.1-1 2.1-2.1 0-1.2-.9-2.2-2.1-2.2-1.2 0-2.2 1-2.2 2.2 0 1.1 1 2.1 2.2 2.1zm-7.2 2.9c-1.2 0-2.2 1-2.2 2.2 0 1.1 1 2.1 2.2 2.1 1.2 0 2.1-1 2.1-2.1 0-1.2-.9-2.2-2.1-2.2zm14.4 0c-1.2 0-2.2 1-2.2 2.2 0 1.1 1 2.1 2.2 2.1 1.2 0 2.1-1 2.1-2.1 0-1.2-.9-2.2-2.1-2.2zm-14.4-14.4c-1.2 0-2.2 1-2.2 2.2 0 1.2 1 2.1 2.2 2.1 1.2 0 2.1-.9 2.1-2.1 0-1.2-.9-2.2-2.1-2.2zm-13.6.2q-.4-.2-.8-.2c-.9 0-1.7.6-2 1.3q-.2.4-.2.9 0 .4.2.8c.3.8 1.1 1.3 2 1.3q.4 0 .8-.1c.8-.4 1.3-1.1 1.3-2 0-.9-.5-1.7-1.3-2zm6.4-50.5c-.9 0-1.7.5-2 1.3q-.2.4-.2.8 0 .5.2.9c.3.7 1.1 1.3 2 1.3.9 0 1.6-.6 2-1.3q.1-.4.1-.9 0-.4-.1-.8c-.4-.8-1.1-1.3-2-1.3zm-14.4 0c-1.2 0-2.2.9-2.2 2.1 0 1.2 1 2.2 2.2 2.2 1.2 0 2.1-1 2.1-2.2 0-1.2-.9-2.1-2.1-2.1zm14.4-14.4c-.9 0-1.7.5-2 1.3q-.2.4-.2.8 0 .5.2.9c.3.8 1.1 1.3 2 1.3.9 0 1.6-.5 2-1.3q.1-.4.1-.9 0-.4-.1-.8c-.4-.8-1.1-1.3-2-1.3zM18.6 251c-1.2 0-2.2.9-2.2 2.1 0 1.2 1 2.2 2.2 2.2 1.2 0 2.1-1 2.1-2.2 0-1.2-.9-2.1-2.1-2.1zm14.4 0c-1.2 0-2.2.9-2.2 2.1 0 1.2 1 2.2 2.2 2.2 1.2 0 2.1-1 2.1-2.2 0-1.2-.9-2.1-2.1-2.1zm7.2 21.5c-.9 0-1.7.6-2 1.4q-.2.3-.2.8 0 .4.2.8c.3.8 1.1 1.3 2 1.3.9 0 1.6-.5 2-1.3q.1-.4.1-.8 0-.5-.1-.8c-.4-.8-1.1-1.4-2-1.4zm-14.4 0c-1.2 0-2.2 1-2.2 2.2 0 1.2 1 2.1 2.2 2.1 1.2 0 2.1-.9 2.1-2.1 0-1.2-.9-2.2-2.1-2.2zm-14.4 0c-1.2 0-2.2 1-2.2 2.2 0 1.2 1 2.1 2.2 2.1 1.2 0 2.1-.9 2.1-2.1 0-1.2-.9-2.2-2.1-2.2zm28.8-14.4c-.9 0-1.7.6-2 1.4q-.2.4-.2.8 0 .5.2.8c.3.8 1.1 1.4 2 1.4.9 0 1.6-.6 2-1.4q.1-.3.1-.8 0-.4-.1-.8c-.4-.8-1.1-1.4-2-1.4zm-14.4 0c-1.2 0-2.2 1-2.2 2.2 0 1.2 1 2.2 2.2 2.2 1.2 0 2.1-1 2.1-2.2 0-1.2-.9-2.2-2.1-2.2zm-14.4 0c-1.2 0-2.2 1-2.2 2.2 0 1.2 1 2.2 2.2 2.2 1.2 0 2.1-1 2.1-2.2 0-1.2-.9-2.2-2.1-2.2zm7.2 21.6c-1.2 0-2.2 1-2.2 2.2 0 1.2 1 2.1 2.2 2.1 1.2 0 2.1-.9 2.1-2.1 0-1.2-.9-2.2-2.1-2.2zm14.4 0c-1.2 0-2.2 1-2.2 2.2 0 1.2 1 2.1 2.2 2.1 1.2 0 2.1-.9 2.1-2.1 0-1.2-.9-2.2-2.1-2.2zm-14.4-14.4c-1.2 0-2.2 1-2.2 2.2 0 1.2 1 2.2 2.2 2.2 1.2 0 2.1-1 2.1-2.2 0-1.2-.9-2.2-2.1-2.2zm-14.4 0c-1.2 0-2.2 1-2.2 2.2 0 1.2 1 2.2 2.2 2.2 1.2 0 2.1-1 2.1-2.2 0-1.2-.9-2.2-2.1-2.2zm36 36c-.9 0-1.7.5-2 1.3q-.2.4-.2.9 0 .4.2.8c.3.8 1.1 1.3 2 1.3.9 0 1.6-.5 2-1.3q.1-.4.1-.8 0-.5-.1-.9c-.4-.8-1.1-1.3-2-1.3zm0-14.4c-.9 0-1.7.6-2 1.3q-.2.4-.2.9 0 .4.2.8c.3.8 1.1 1.3 2 1.3.9 0 1.6-.5 2-1.3q.1-.4.1-.8 0-.5-.1-.9c-.4-.7-1.1-1.3-2-1.3zm-14.4 0c-1.2 0-2.2 1-2.2 2.2 0 1.2 1 2.1 2.2 2.1 1.2 0 2.1-.9 2.1-2.1 0-1.2-.9-2.2-2.1-2.2z" fill="#34c3ff"/></svg></svg>