<svg version="1.2" xmlns="http://www.w3.org/2000/svg" viewBox="0 0 1632 586" width="1632" height="586">
	<title>Geometric Shape</title>
	<defs>
		<filter x="-50%" y="-50%" width="200%" height="200%" id="f1" ><feDropShadow dx="-1.8369701987210297e-16" dy="3" stdDeviation="4.166666666666667" flood-color="#fe3e57" flood-opacity=".5"/></filter>
	</defs>
	<style>
		.s0 { filter: url(#f1);fill: #fe3e57 } 
		.s1 { fill: #34c3ff } 
	</style>
	<g id="Geometric Shape">
		<path id="Shape 24" fill-rule="evenodd" class="s0" d="m1619 547.5c0 13-10.5 23.5-23.5 23.5-13 0-23.5-10.5-23.5-23.5 0-13 10.5-23.5 23.5-23.5 13 0 23.5 10.5 23.5 23.5zm-4.8 0c0-10.3-8.4-18.7-18.7-18.7-10.3 0-18.7 8.4-18.7 18.7 0 10.3 8.4 18.7 18.7 18.7 10.3 0 18.7-8.4 18.7-18.7zm-13.1 0c0 3.1-2.5 5.6-5.6 5.6-3.1 0-5.6-2.5-5.6-5.6 0-3.1 2.5-5.6 5.6-5.6 3.1 0 5.6 2.5 5.6 5.6z"/>
		<path id="Shape 22" class="s1" d="m83.4 243.8c-1.2 0-2.2 0.9-2.2 2.1 0 1.2 1 2.2 2.2 2.2 1.2 0 2.2-1 2.2-2.2 0-1.2-1-2.1-2.2-2.1zm-14.4 0c-1.2 0-2.2 0.9-2.2 2.1 0 1.2 1 2.2 2.2 2.2 1.2 0 2.2-1 2.2-2.2 0-1.2-1-2.1-2.2-2.1zm0-14.4c-1.2 0-2.2 0.9-2.2 2.1 0 1.2 1 2.2 2.2 2.2 1.2 0 2.2-1 2.2-2.2 0-1.2-1-2.1-2.2-2.1zm-14.4 0q0 0 0 0c-1.2 0-2.2 0.9-2.2 2.1 0 1.2 1 2.2 2.2 2.2q0 0 0 0c1.2 0 2.1-1 2.1-2.2 0-1.2-0.9-2.1-2.1-2.1zm21.6 21.6c-1.2 0-2.2 0.9-2.2 2.1 0 1.2 1 2.2 2.2 2.2 1.2 0 2.2-1 2.2-2.2 0-1.2-1-2.1-2.2-2.1zm14.4 0c-1.2 0-2.2 0.9-2.2 2.1 0 1.2 1 2.2 2.2 2.2 1.2 0 2.2-1 2.2-2.2 0-1.2-1-2.1-2.2-2.1zm-14.4-14.4c-1.2 0-2.2 0.9-2.2 2.1 0 1.2 1 2.2 2.2 2.2 1.2 0 2.2-1 2.2-2.2 0-1.2-1-2.1-2.2-2.1zm-14.4 0c-1.2 0-2.2 0.9-2.2 2.1 0 1.2 1 2.2 2.2 2.2 1.2 0 2.1-1 2.1-2.2 0-1.2-0.9-2.1-2.1-2.1zm36 35.9c-1.2 0-2.2 1-2.2 2.2 0 1.2 1 2.1 2.2 2.1 1.2 0 2.2-0.9 2.2-2.1 0-1.2-1-2.2-2.2-2.2zm-14.4 0c-1.2 0-2.2 1-2.2 2.2 0 1.2 1 2.1 2.2 2.1 1.2 0 2.2-0.9 2.2-2.1 0-1.2-1-2.2-2.2-2.2zm-14.4 0c-1.2 0-2.2 1-2.2 2.2 0 1.2 1 2.1 2.2 2.1 1.2 0 2.2-0.9 2.2-2.1 0-1.2-1-2.2-2.2-2.2zm28.8-14.4c-1.2 0-2.2 1-2.2 2.2 0 1.2 1 2.2 2.2 2.2 1.2 0 2.2-1 2.2-2.2 0-1.2-1-2.2-2.2-2.2zm-14.4 0c-1.2 0-2.2 1-2.2 2.2 0 1.2 1 2.2 2.2 2.2 1.2 0 2.2-1 2.2-2.2 0-1.2-1-2.2-2.2-2.2zm-14.4 0c-1.2 0-2.2 1-2.2 2.2 0 1.2 1 2.2 2.2 2.2 1.2 0 2.2-1 2.2-2.2 0-1.2-1-2.2-2.2-2.2zm-14.4 0q0 0 0 0c-1.2 0-2.2 1-2.2 2.2 0 1.2 1 2.2 2.2 2.2q0 0 0 0c1.2 0 2.1-1 2.1-2.2 0-1.2-0.9-2.2-2.1-2.2zm21.6 21.6c-1.2 0-2.2 1-2.2 2.2 0 1.2 1 2.1 2.2 2.1 1.2 0 2.2-0.9 2.2-2.1 0-1.2-1-2.2-2.2-2.2zm14.4 0c-1.2 0-2.2 1-2.2 2.2 0 1.2 1 2.1 2.2 2.1 1.2 0 2.2-0.9 2.2-2.1 0-1.2-1-2.2-2.2-2.2zm-14.4-14.4c-1.2 0-2.2 1-2.2 2.2 0 1.2 1 2.2 2.2 2.2 1.2 0 2.2-1 2.2-2.2 0-1.2-1-2.2-2.2-2.2zm16.6 2.2c0-1.2-1-2.2-2.2-2.2-1.2 0-2.2 1-2.2 2.2 0 1.2 1 2.2 2.2 2.2 1.2 0 2.2-1 2.2-2.2zm12.2-2.2c-1.2 0-2.2 1-2.2 2.2 0 1.2 1 2.2 2.2 2.2 1.2 0 2.2-1 2.2-2.2 0-1.2-1-2.2-2.2-2.2zm-43.2 0c-1.2 0-2.2 1-2.2 2.2 0 1.2 1 2.2 2.2 2.2 1.2 0 2.1-1 2.1-2.2 0-1.2-0.9-2.2-2.1-2.2zm7.2 36c-1.2 0-2.2 1-2.2 2.2 0 1.1 1 2.1 2.2 2.1 1.2 0 2.2-1 2.2-2.1 0-1.2-1-2.2-2.2-2.2zm14.4-14.4c-1.2 0-2.2 1-2.2 2.2 0 1.2 1 2.1 2.2 2.1 1.2 0 2.2-0.9 2.2-2.1 0-1.2-1-2.2-2.2-2.2zm-14.4 0c-1.2 0-2.2 1-2.2 2.2 0 1.2 1 2.1 2.2 2.1 1.2 0 2.2-0.9 2.2-2.1 0-1.2-1-2.2-2.2-2.2zm-14.4 0q0 0 0 0c-1.2 0-2.2 1-2.2 2.2 0 1.2 1 2.1 2.2 2.1q0 0 0 0c1.2 0 2.1-0.9 2.1-2.1 0-1.2-0.9-2.2-2.1-2.2zm21.6 7.2c-1.2 0-2.2 1-2.2 2.2 0 1.2 1 2.1 2.2 2.1 1.2 0 2.2-0.9 2.2-2.1 0-1.2-1-2.2-2.2-2.2zm-14.4 0c-1.2 0-2.2 1-2.2 2.2 0 1.2 1 2.1 2.2 2.1 1.2 0 2.1-0.9 2.1-2.1 0-1.2-0.9-2.2-2.1-2.2zm-7.2 21.6q0 0 0 0c-1.2 0-2.2 1-2.2 2.1 0 1.2 1 2.2 2.2 2.2q0 0 0 0c1.2 0 2.1-1 2.1-2.2 0-1.1-0.9-2.1-2.1-2.1zm0-96.4c1.2 0 2.1-1 2.1-2.1 0-1.2-0.9-2.2-2.1-2.2-1.2 0-2.2 1-2.2 2.2 0 1.1 1 2.1 2.2 2.1zm-7.2 2.9c-1.2 0-2.2 1-2.2 2.1 0 1.2 1 2.2 2.2 2.2 1.2 0 2.1-1 2.1-2.2 0-1.1-0.9-2.1-2.1-2.1zm14.4 4.3c1.2 0 2.1-1 2.1-2.2 0-1.1-0.9-2.1-2.1-2.1-1.2 0-2.2 1-2.2 2.1 0 1.2 1 2.2 2.2 2.2zm-7.2 21.6c1.2 0 2.1-1 2.1-2.2 0-1.2-0.9-2.1-2.1-2.1-1.2 0-2.2 0.9-2.2 2.1 0 1.2 1 2.2 2.2 2.2zm-7.2 2.9c-1.2 0-2.2 0.9-2.2 2.1 0 1.2 1 2.2 2.2 2.2 1.2 0 2.1-1 2.1-2.2 0-1.2-0.9-2.1-2.1-2.1zm14.4 4.3c1.2 0 2.1-1 2.1-2.2 0-1.2-0.9-2.1-2.1-2.1-1.2 0-2.2 0.9-2.2 2.1 0 1.2 1 2.2 2.2 2.2zm-14.4-18.7c-1.2 0-2.2 0.9-2.2 2.1 0 1.2 1 2.2 2.2 2.2 1.2 0 2.1-1 2.1-2.2 0-1.2-0.9-2.1-2.1-2.1zm-13.6 0.1q-0.4-0.1-0.8-0.1c-0.9 0-1.7 0.5-2 1.3q-0.2 0.4-0.2 0.8 0 0.5 0.2 0.9c0.3 0.7 1.1 1.3 2 1.3q0.4 0 0.8-0.2c0.8-0.3 1.3-1.1 1.3-2 0-0.9-0.5-1.6-1.3-2zm20.8 40.1c1.2 0 2.1-0.9 2.1-2.1 0-1.2-0.9-2.2-2.1-2.2-1.2 0-2.2 1-2.2 2.2 0 1.2 1 2.1 2.2 2.1zm-7.2 2.9c-1.2 0-2.2 1-2.2 2.2 0 1.2 1 2.1 2.2 2.1 1.2 0 2.1-0.9 2.1-2.1 0-1.2-0.9-2.2-2.1-2.2zm14.4 4.3c1.2 0 2.1-0.9 2.1-2.1 0-1.2-0.9-2.2-2.1-2.2-1.2 0-2.2 1-2.2 2.2 0 1.2 1 2.1 2.2 2.1zm-14.4-18.7c-1.2 0-2.2 1-2.2 2.2 0 1.2 1 2.2 2.2 2.2 1.2 0 2.1-1 2.1-2.2 0-1.2-0.9-2.2-2.1-2.2zm-13.6 0.2q-0.4-0.2-0.8-0.2c-0.9 0-1.7 0.6-2 1.4q-0.2 0.3-0.2 0.8 0 0.4 0.2 0.8c0.3 0.8 1.1 1.4 2 1.4q0.4 0 0.8-0.2c0.8-0.3 1.3-1.1 1.3-2 0-0.9-0.5-1.7-1.3-2zm20.8 40.1c1.2 0 2.1-1 2.1-2.1 0-1.2-0.9-2.2-2.1-2.2-1.2 0-2.2 1-2.2 2.2 0 1.1 1 2.1 2.2 2.1zm-7.2 2.9c-1.2 0-2.2 1-2.2 2.2 0 1.1 1 2.1 2.2 2.1 1.2 0 2.1-1 2.1-2.1 0-1.2-0.9-2.2-2.1-2.2zm14.4 0c-1.2 0-2.2 1-2.2 2.2 0 1.1 1 2.1 2.2 2.1 1.2 0 2.1-1 2.1-2.1 0-1.2-0.9-2.2-2.1-2.2zm-14.4-14.4c-1.2 0-2.2 1-2.2 2.2 0 1.2 1 2.1 2.2 2.1 1.2 0 2.1-0.9 2.1-2.1 0-1.2-0.9-2.2-2.1-2.2zm-13.6 0.2q-0.4-0.2-0.8-0.2c-0.9 0-1.7 0.6-2 1.3q-0.2 0.4-0.2 0.9 0 0.4 0.2 0.8c0.3 0.8 1.1 1.3 2 1.3q0.4 0 0.8-0.1c0.8-0.4 1.3-1.1 1.3-2 0-0.9-0.5-1.7-1.3-2zm6.4-50.5q0 0 0 0c-0.9 0-1.7 0.5-2 1.3q-0.2 0.4-0.2 0.8 0 0.5 0.2 0.9c0.3 0.7 1.1 1.3 2 1.3q0 0 0 0c0.9 0 1.6-0.6 2-1.3q0.1-0.4 0.1-0.9 0-0.4-0.1-0.8c-0.4-0.8-1.1-1.3-2-1.3zm-14.4 0c-1.2 0-2.2 0.9-2.2 2.1 0 1.2 1 2.2 2.2 2.2 1.2 0 2.1-1 2.1-2.2 0-1.2-0.9-2.1-2.1-2.1zm14.4-14.4q0 0 0 0c-0.9 0-1.7 0.5-2 1.3q-0.2 0.4-0.2 0.8 0 0.5 0.2 0.9c0.3 0.8 1.1 1.3 2 1.3q0 0 0 0c0.9 0 1.6-0.5 2-1.3q0.1-0.4 0.1-0.9 0-0.4-0.1-0.8c-0.4-0.8-1.1-1.3-2-1.3zm-21.6 21.6c-1.2 0-2.2 0.9-2.2 2.1 0 1.2 1 2.2 2.2 2.2 1.2 0 2.1-1 2.1-2.2 0-1.2-0.9-2.1-2.1-2.1zm14.4 0c-1.2 0-2.2 0.9-2.2 2.1 0 1.2 1 2.2 2.2 2.2 1.2 0 2.1-1 2.1-2.2 0-1.2-0.9-2.1-2.1-2.1zm7.2 21.5q0 0 0 0c-0.9 0-1.7 0.6-2 1.4q-0.2 0.3-0.2 0.8 0 0.4 0.2 0.8c0.3 0.8 1.1 1.3 2 1.3q0 0 0 0c0.9 0 1.6-0.5 2-1.3q0.1-0.4 0.1-0.8 0-0.5-0.1-0.8c-0.4-0.8-1.1-1.4-2-1.4zm-14.4 0c-1.2 0-2.2 1-2.2 2.2 0 1.2 1 2.1 2.2 2.1 1.2 0 2.1-0.9 2.1-2.1 0-1.2-0.9-2.2-2.1-2.2zm-14.4 0c-1.2 0-2.2 1-2.2 2.2 0 1.2 1 2.1 2.2 2.1 1.2 0 2.1-0.9 2.1-2.1 0-1.2-0.9-2.2-2.1-2.2zm28.8-14.4q0 0 0 0c-0.9 0-1.7 0.6-2 1.4q-0.2 0.4-0.2 0.8 0 0.5 0.2 0.8c0.3 0.8 1.1 1.4 2 1.4q0 0 0 0c0.9 0 1.6-0.6 2-1.4q0.1-0.3 0.1-0.8 0-0.4-0.1-0.8c-0.4-0.8-1.1-1.4-2-1.4zm-14.4 0c-1.2 0-2.2 1-2.2 2.2 0 1.2 1 2.2 2.2 2.2 1.2 0 2.1-1 2.1-2.2 0-1.2-0.9-2.2-2.1-2.2zm-14.4 0c-1.2 0-2.2 1-2.2 2.2 0 1.2 1 2.2 2.2 2.2 1.2 0 2.1-1 2.1-2.2 0-1.2-0.9-2.2-2.1-2.2zm7.2 21.6c-1.2 0-2.2 1-2.2 2.2 0 1.2 1 2.1 2.2 2.1 1.2 0 2.1-0.9 2.1-2.1 0-1.2-0.9-2.2-2.1-2.2zm14.4 0c-1.2 0-2.2 1-2.2 2.2 0 1.2 1 2.1 2.2 2.1 1.2 0 2.1-0.9 2.1-2.1 0-1.2-0.9-2.2-2.1-2.2zm-14.4-14.4c-1.2 0-2.2 1-2.2 2.2 0 1.2 1 2.2 2.2 2.2 1.2 0 2.1-1 2.1-2.2 0-1.2-0.9-2.2-2.1-2.2zm-14.4 0c-1.2 0-2.2 1-2.2 2.2 0 1.2 1 2.2 2.2 2.2 1.2 0 2.1-1 2.1-2.2 0-1.2-0.9-2.2-2.1-2.2zm36 36q0 0 0 0c-0.9 0-1.7 0.5-2 1.3q-0.2 0.4-0.2 0.9 0 0.4 0.2 0.8c0.3 0.8 1.1 1.3 2 1.3q0 0 0 0c0.9 0 1.6-0.5 2-1.3q0.1-0.4 0.1-0.8 0-0.5-0.1-0.9c-0.4-0.8-1.1-1.3-2-1.3zm0-14.4q0 0 0 0c-0.9 0-1.7 0.6-2 1.3q-0.2 0.4-0.2 0.9 0 0.4 0.2 0.8c0.3 0.8 1.1 1.3 2 1.3q0 0 0 0c0.9 0 1.6-0.5 2-1.3q0.1-0.4 0.1-0.8 0-0.5-0.1-0.9c-0.4-0.7-1.1-1.3-2-1.3zm-14.4 0c-1.2 0-2.2 1-2.2 2.2 0 1.2 1 2.1 2.2 2.1 1.2 0 2.1-0.9 2.1-2.1 0-1.2-0.9-2.2-2.1-2.2z"/>
	</g>
</svg>